<svg width="324.306" height="324.306" xmlns="http://www.w3.org/2000/svg">

 <g>
  <title>background</title>
  <rect x="-1" y="-1" width="326.306" height="326.306" id="canvas_background" fill="none"/>
 </g>
 <g>
  <title>Layer 1</title>
  <g id="svg_3"/>
  <g id="svg_4"/>
  <g id="svg_5"/>
  <g id="svg_6"/>
  <g id="svg_7"/>
  <g id="svg_8"/>
  <g id="svg_9"/>
  <g id="svg_10"/>
  <g id="svg_11"/>
  <g id="svg_12"/>
  <g id="svg_13"/>
  <g id="svg_14"/>
  <g id="svg_15"/>
  <g id="svg_16"/>
  <g id="svg_17"/>
  <ellipse fill="#000000" stroke-width="1.5" cx="156.653015" cy="160.653" id="svg_18" rx="144.5" ry="144.5" stroke="#000000"/>
  <ellipse fill="#2200ff" stroke-width="null" stroke-opacity="null" cx="156.65301" cy="160.652994" id="svg_19" rx="131.499994" ry="131.499994" stroke="null"/>
  <g id="svg_47" stroke="null" transform="rotate(-39.622337341308594 157.1527709960938,157.1529235839844) ">
   <g id="svg_29" transform="matrix(0.4604400392135764,0,0,0.4314203351069041,-1294.3651918841692,-1173.3396918751423) " stroke="null">
    <path d="m14569.883807,14084.781375c-25.731207,0 -46.597622,20.77905 -46.597622,46.402524l0,245.534315c0,76.759055 -62.71108,139.207571 -139.792867,139.207571l-76.769583,0l-24.417154,-1115.595557c-0.163092,-7.3548 -2.073594,-14.565752 -5.587055,-21.038904l-75.488148,-139.207571c-8.140605,-14.997296 -23.876622,-24.352044 -41.001248,-24.352044s-32.865303,9.354749 -41.001248,24.352044l-75.488148,139.207571c-3.513461,6.477792 -5.423963,13.684104 -5.587055,21.038904l-24.417154,1115.595557l-76.769583,0c-77.081787,0 -139.792867,-62.448517 -139.792867,-139.207571l0,-245.534315c0,-25.623474 -20.866415,-46.402524 -46.597622,-46.402524s-46.597622,20.77905 -46.597622,46.402524l0,245.534315c0,127.931758 104.518467,232.012619 232.988112,232.012619l74.304569,0l-21.817007,703.151364c-0.013979,0.477946 -0.023299,0.955892 -0.023299,1.433838c0,54.332715 60.656125,84.253062 170.794266,84.253062s170.794266,-29.920347 170.794266,-84.253062c0,-0.477946 -0.00932,-0.955892 -0.023299,-1.433838l-21.817007,-703.151364l74.304569,0c128.469645,0 232.988112,-104.080861 232.988112,-232.012619l0,-245.534315c0.00932,-25.623474 -20.857096,-46.402524 -46.588303,-46.402524zm-350.963973,619.673224c-25.050882,0.779562 -45.134457,21.196673 -45.134457,46.32828c0,25.623474 20.866415,46.402524 46.597622,46.402524l1.411908,0l2.968269,95.728407c-25.055542,0.774922 -45.143777,21.192033 -45.143777,46.32828c0,25.623474 20.866415,46.402524 46.597622,46.402524l1.421227,0l2.968269,95.654163l-140.762098,0l14.659612,-472.572583l111.438214,0l2.977588,95.728407zm-87.836518,-1290.913572l29.146813,-53.748043l29.146813,53.748043l24.128249,1102.384758l-106.550124,0l24.128249,-1102.384758zm29.146813,1891.223023c-37.208202,0 -63.391406,-4.793381 -77.035189,-8.946407l3.774407,-121.70918l146.521564,0l3.774407,121.70918c-13.643784,4.153026 -39.826988,8.946407 -77.035189,8.946407z" id="svg_30" fill="#ffffff"/>
    <path d="m15437.410384,14004.574613l-74.304569,0l21.817007,-703.151364c0.013979,-0.477946 0.023299,-0.955892 0.023299,-1.433838c0,-54.332715 -60.656125,-84.253062 -170.794266,-84.253062s-170.794266,29.920347 -170.794266,84.253062c0,0.477946 0.00932,0.955892 0.023299,1.433838l21.807687,703.151364l-74.304569,0c-128.469645,0 -232.988112,104.080861 -232.988112,232.012619l0,245.534315c0,25.623474 20.866415,46.402524 46.597622,46.402524s46.597622,-20.77905 46.597622,-46.402524l0,-245.534315c0,-76.759055 62.71108,-139.207571 139.792867,-139.207571l76.769583,0l24.417154,1115.595557c0.163092,7.3548 2.073594,14.565752 5.587055,21.038904l75.488148,139.207571c8.135945,14.997296 23.876622,24.352044 41.001248,24.352044s32.865303,-9.354749 41.001248,-24.352044l75.488148,-139.207571c3.513461,-6.477792 5.423963,-13.684104 5.587055,-21.038904l24.417154,-1115.595557l76.769583,0c77.081787,0 139.792867,62.448517 139.792867,139.207571l0,245.534315c0,25.623474 20.866415,46.402524 46.597622,46.402524s46.597622,-20.77905 46.597622,-46.402524l0,-245.534315c0,-127.931758 -104.518467,-232.012619 -232.988112,-232.012619zm-278.984626,0l-2.968269,-95.723766c25.050882,-0.779562 45.134457,-21.196673 45.134457,-46.32828c0,-25.623474 -20.866415,-46.402524 -46.597622,-46.402524l-1.411908,0l-2.968269,-95.728407c25.055542,-0.774922 45.143777,-21.192033 45.143777,-46.32828c0,-25.623474 -20.866415,-46.402524 -46.597622,-46.402524l-1.421227,0l-2.968269,-95.654163l140.762098,0l-14.668932,472.567943l-111.438214,0zm55.721437,-696.033217c37.208202,0 63.391406,4.793381 77.035189,8.946407l-3.774407,121.70918l-146.521564,0l-3.774407,-121.70918c13.639124,-4.153026 39.822328,-8.946407 77.035189,-8.946407zm29.142153,1891.223023l-29.146813,53.748043l-29.146813,-53.748043l-24.123589,-1102.384758l106.545464,0l-24.128249,1102.384758z" id="svg_31" fill="#ffffff"/>
   </g>
   <g id="svg_32" transform="matrix(0.4604400392135764,0,0,0.4314203351069041,-1294.3651918841692,-1173.3396918751423) " stroke="null"/>
   <g id="svg_33" transform="matrix(0.4604400392135764,0,0,0.4314203351069041,-1294.3651918841692,-1173.3396918751423) " stroke="null"/>
   <g id="svg_34" transform="matrix(0.4604400392135764,0,0,0.4314203351069041,-1294.3651918841692,-1173.3396918751423) " stroke="null"/>
   <g id="svg_35" transform="matrix(0.4604400392135764,0,0,0.4314203351069041,-1294.3651918841692,-1173.3396918751423) " stroke="null"/>
   <g id="svg_36" transform="matrix(0.4604400392135764,0,0,0.4314203351069041,-1294.3651918841692,-1173.3396918751423) " stroke="null"/>
   <g id="svg_37" transform="matrix(0.4604400392135764,0,0,0.4314203351069041,-1294.3651918841692,-1173.3396918751423) " stroke="null"/>
   <g id="svg_38" transform="matrix(0.4604400392135764,0,0,0.4314203351069041,-1294.3651918841692,-1173.3396918751423) " stroke="null"/>
   <g id="svg_39" transform="matrix(0.4604400392135764,0,0,0.4314203351069041,-1294.3651918841692,-1173.3396918751423) " stroke="null"/>
   <g id="svg_40" transform="matrix(0.4604400392135764,0,0,0.4314203351069041,-1294.3651918841692,-1173.3396918751423) " stroke="null"/>
   <g id="svg_41" transform="matrix(0.4604400392135764,0,0,0.4314203351069041,-1294.3651918841692,-1173.3396918751423) " stroke="null"/>
   <g id="svg_42" transform="matrix(0.4604400392135764,0,0,0.4314203351069041,-1294.3651918841692,-1173.3396918751423) " stroke="null"/>
   <g id="svg_43" transform="matrix(0.4604400392135764,0,0,0.4314203351069041,-1294.3651918841692,-1173.3396918751423) " stroke="null"/>
   <g id="svg_44" transform="matrix(0.4604400392135764,0,0,0.4314203351069041,-1294.3651918841692,-1173.3396918751423) " stroke="null"/>
   <g id="svg_45" transform="matrix(0.4604400392135764,0,0,0.4314203351069041,-1294.3651918841692,-1173.3396918751423) " stroke="null"/>
   <g id="svg_46" transform="matrix(0.4604400392135764,0,0,0.4314203351069041,-1294.3651918841692,-1173.3396918751423) " stroke="null"/>
  </g>
  <g transform="rotate(-42.438621520996094 158.15301513671875,159.1529846191406) " stroke="null" id="svg_60">
   <g stroke="null" transform="matrix(0.5030940916007925,0,0,0.4569414619807567,-1452.2174524945865,-1280.6323185626693) " id="svg_22">
    <path fill="#ffffff" stroke="null" id="svg_23" d="m3175.758626,3103.103863c-5.522,0 -10,4.478 -10,10l0,52.914c0,16.542 -13.458,30 -30,30l-16.475,0l-5.24,-240.417c-0.035,-1.585 -0.445,-3.139 -1.199,-4.534l-16.2,-30c-1.747,-3.232 -5.124,-5.248 -8.799,-5.248s-7.053,2.016 -8.799,5.248l-16.2,30c-0.754,1.396 -1.164,2.949 -1.199,4.534l-5.24,240.417l-16.475,0c-16.542,0 -30,-13.458 -30,-30l0,-52.914c0,-5.522 -4.478,-10 -10,-10s-10,4.478 -10,10l0,52.914c0,27.57 22.43,50 50,50l15.946,0l-4.682,151.533c-0.003,0.103 -0.005,0.206 -0.005,0.309c0,11.709 13.017,18.157 36.653,18.157s36.653,-6.448 36.653,-18.157c0,-0.103 -0.002,-0.206 -0.005,-0.309l-4.682,-151.533l15.946,0c27.57,0 50,-22.43 50,-50l0,-52.914c0.002,-5.522 -4.476,-10 -9.998,-10zm-75.318,133.543c-5.376,0.168 -9.686,4.568 -9.686,9.984c0,5.522 4.478,10 10,10l0.303,0l0.637,20.63c-5.377,0.167 -9.688,4.567 -9.688,9.984c0,5.522 4.478,10 10,10l0.305,0l0.637,20.614l-30.208,0l3.146,-101.842l23.915,0l0.639,20.63zm-18.85,-278.199l6.255,-11.583l6.255,11.583l5.178,237.57l-22.866,0l5.178,-237.57zm6.255,407.569c-7.985,0 -13.604,-1.033 -16.532,-1.928l0.81,-26.229l31.444,0l0.81,26.229c-2.928,0.895 -8.547,1.928 -16.532,1.928z"/>
    <path fill="#ffffff" stroke="null" id="svg_24" d="m3361.932626,3085.818863l-15.946,0l4.682,-151.533c0.003,-0.103 0.005,-0.206 0.005,-0.309c0,-11.709 -13.017,-18.157 -36.653,-18.157s-36.653,6.448 -36.653,18.157c0,0.103 0.002,0.206 0.005,0.309l4.68,151.533l-15.946,0c-27.57,0 -50,22.43 -50,50l0,52.914c0,5.522 4.478,10 10,10s10,-4.478 10,-10l0,-52.914c0,-16.542 13.458,-30 30,-30l16.475,0l5.24,240.417c0.035,1.585 0.445,3.139 1.199,4.534l16.2,30c1.746,3.232 5.124,5.248 8.799,5.248s7.053,-2.016 8.799,-5.248l16.2,-30c0.754,-1.396 1.164,-2.949 1.199,-4.534l5.24,-240.417l16.475,0c16.542,0 30,13.458 30,30l0,52.914c0,5.522 4.478,10 10,10s10,-4.478 10,-10l0,-52.914c0,-27.57 -22.43,-50 -50,-50zm-59.871,0l-0.637,-20.629c5.376,-0.168 9.686,-4.568 9.686,-9.984c0,-5.522 -4.478,-10 -10,-10l-0.303,0l-0.637,-20.63c5.377,-0.167 9.688,-4.567 9.688,-9.984c0,-5.522 -4.478,-10 -10,-10l-0.305,0l-0.637,-20.614l30.208,0l-3.148,101.841l-23.915,0zm11.958,-149.999c7.985,0 13.604,1.033 16.532,1.928l-0.81,26.229l-31.444,0l-0.81,-26.229c2.927,-0.895 8.546,-1.928 16.532,-1.928zm6.254,407.569l-6.255,11.583l-6.255,-11.583l-5.177,-237.57l22.865,0l-5.178,237.57z"/>
   </g>
   <g stroke="null" transform="matrix(0.5030940916007925,0,0,0.4569414619807567,-1452.2174524945865,-1280.6323185626693) " id="svg_25"/>
   <g stroke="null" transform="matrix(0.5030940916007925,0,0,0.4569414619807567,-1452.2174524945865,-1280.6323185626693) " id="svg_26"/>
   <g stroke="null" transform="matrix(0.5030940916007925,0,0,0.4569414619807567,-1452.2174524945865,-1280.6323185626693) " id="svg_27"/>
   <g stroke="null" transform="matrix(0.5030940916007925,0,0,0.4569414619807567,-1452.2174524945865,-1280.6323185626693) " id="svg_28"/>
   <g stroke="null" transform="matrix(0.5030940916007925,0,0,0.4569414619807567,-1452.2174524945865,-1280.6323185626693) " id="svg_48"/>
   <g stroke="null" transform="matrix(0.5030940916007925,0,0,0.4569414619807567,-1452.2174524945865,-1280.6323185626693) " id="svg_50"/>
   <g stroke="null" transform="matrix(0.5030940916007925,0,0,0.4569414619807567,-1452.2174524945865,-1280.6323185626693) " id="svg_51"/>
   <g stroke="null" transform="matrix(0.5030940916007925,0,0,0.4569414619807567,-1452.2174524945865,-1280.6323185626693) " id="svg_52"/>
   <g stroke="null" transform="matrix(0.5030940916007925,0,0,0.4569414619807567,-1452.2174524945865,-1280.6323185626693) " id="svg_53"/>
   <g stroke="null" transform="matrix(0.5030940916007925,0,0,0.4569414619807567,-1452.2174524945865,-1280.6323185626693) " id="svg_54"/>
   <g stroke="null" transform="matrix(0.5030940916007925,0,0,0.4569414619807567,-1452.2174524945865,-1280.6323185626693) " id="svg_55"/>
   <g stroke="null" transform="matrix(0.5030940916007925,0,0,0.4569414619807567,-1452.2174524945865,-1280.6323185626693) " id="svg_56"/>
   <g stroke="null" transform="matrix(0.5030940916007925,0,0,0.4569414619807567,-1452.2174524945865,-1280.6323185626693) " id="svg_57"/>
   <g stroke="null" transform="matrix(0.5030940916007925,0,0,0.4569414619807567,-1452.2174524945865,-1280.6323185626693) " id="svg_58"/>
   <g stroke="null" transform="matrix(0.5030940916007925,0,0,0.4569414619807567,-1452.2174524945865,-1280.6323185626693) " id="svg_59"/>
  </g>
 </g>
</svg>