<svg width="324.306" height="324.306" xmlns="http://www.w3.org/2000/svg">
 <g>
  <title>background</title>
  <rect fill="none" id="canvas_background" height="326.306" width="326.306" y="-1" x="-1"/>
 </g>
 <defs>
  <linearGradient y2="0" x2="1" y1="0" x1="0" id="svg_296">
   <stop offset="0" stop-opacity="0.996094" stop-color="#00ff00"/>
   <stop offset="1" stop-opacity="0.996094" stop-color="#00ffb2"/>
  </linearGradient>
 </defs>
 <g>
  <title>Layer 1</title>
  <g id="svg_3"/>
  <g id="svg_4"/>
  <g id="svg_5"/>
  <g id="svg_6"/>
  <g id="svg_7"/>
  <g id="svg_8"/>
  <g id="svg_9"/>
  <g id="svg_10"/>
  <g id="svg_11"/>
  <g id="svg_12"/>
  <g id="svg_13"/>
  <g id="svg_14"/>
  <g id="svg_15"/>
  <g id="svg_16"/>
  <g id="svg_17"/>
  <ellipse stroke="#000000" ry="144.5" rx="144.5" id="svg_18" cy="160.653" cx="156.653015" stroke-width="8" fill="#ffffff"/>
  <ellipse transform="rotate(-22.51546859741211 156.65301513671872,160.65299987792966) " stroke="null" ry="131.499994" rx="131.499994" id="svg_19" cy="160.652994" cx="156.65301" stroke-opacity="null" stroke-width="null" fill="url(#svg_296)"/>
  <g stroke="null" id="svg_295">
   <path fill="#ffffff" stroke="null" id="svg_279" d="m188.72413,144.190476l25.970864,6.956954c0.327248,0.087698 0.659204,0.130664 0.989983,0.130664c1.001166,0 1.9782,-0.393757 2.70509,-1.120058l25.58005,-25.58005c1.281916,-1.281916 1.487917,-3.288368 0.492637,-4.804536l-15.85032,-24.145693l4.306013,-4.306013c1.493803,-1.493803 1.493803,-3.915788 -0.000589,-5.41018c-1.493214,-1.493214 -3.915788,-1.493803 -5.41018,0.000589l-4.303659,4.303659l-24.148636,-15.849731c-1.51558,-0.994103 -3.522032,-0.78869 -4.803948,0.493226l-25.58005,25.58005c-0.96644,0.96644 -1.343716,2.374899 -0.989983,3.695073l6.959309,25.970864l-18.996841,18.312328l-18.977418,-18.292905l6.957543,-25.972041c0.354322,-1.319585 -0.023543,-2.728633 -0.989983,-3.694484l-25.58005,-25.58005c-1.281916,-1.281916 -3.287779,-1.487917 -4.804536,-0.492637l-24.145693,15.85032l-4.324848,-4.324848c-1.493214,-1.493214 -3.915788,-1.493214 -5.41018,0c-1.493803,1.494391 -1.493803,3.916377 0,5.41018l4.322493,4.322493l-15.848554,24.149225c-0.994691,1.51558 -0.78869,3.522032 0.493226,4.803948l25.58005,25.58005c0.726301,0.726301 1.703924,1.120058 2.70509,1.120058c0.330779,0 0.663324,-0.042377 0.990571,-0.130664l25.969687,-6.959897l18.028047,18.703142l-19.450632,18.751405c-1.291333,-0.367271 -2.73805,-0.044143 -3.755107,0.972914l-26.763086,26.763086c-4.248333,4.248333 -5.006417,10.680279 -2.286613,15.715536l-17.704919,22.994441l22.96619,-17.683142c1.944651,1.077092 4.137092,1.656838 6.42194,1.656838c3.549695,0 6.886325,-1.382562 9.396008,-3.891657l26.763674,-26.763086c0.717473,-0.718061 1.120058,-1.690975 1.120058,-2.705678c0,-0.355499 -0.052383,-0.705701 -0.147732,-1.041777l18.478307,-19.167528l18.471832,19.162819c-0.366094,1.290745 -0.042377,2.735107 0.973503,3.751576l26.763086,26.762497c2.509683,2.510272 5.846314,3.892245 9.396008,3.892245c2.267779,0 4.446094,-0.56974 6.380151,-1.632118l22.934407,17.65901l-17.65901,-22.934407c1.062378,-1.934057 1.632118,-4.112372 1.632118,-6.380151c0,-3.549695 -1.382562,-6.886325 -3.891657,-9.396008l-26.763086,-26.763086c-1.016469,-1.017057 -2.462597,-1.339596 -3.753342,-0.973503l-19.451221,-18.74964l18.043938,-18.719622zm47.63336,-22.8214l-21.815526,21.815526l-25.71248,-6.887503l-0.443785,-0.443785l34.700606,-34.701194l13.271185,20.216957zm-38.897733,-38.897733l20.218134,13.268831l-34.704137,34.704726l-0.436723,-0.436723l-6.892211,-25.721308l21.814937,-21.815526zm-18.847932,54.433165l3.314853,3.312499l-16.756137,17.383557l-4.01408,-3.869291l17.455363,-16.826766zm-64.766185,-54.413742l21.815526,21.815526l-6.873965,25.661862l-0.475568,0.475568l-34.68236,-34.681771l20.216368,-13.271185zm-38.897733,38.897733l13.268831,-20.218722l34.684714,34.684714l-0.471448,0.471448l-25.665982,6.878085l-21.816114,-21.815526zm57.725653,15.514832l51.697469,49.832276l-5.178281,5.178281l-49.832276,-51.697469l3.313088,-3.313088zm-32.053785,73.335834l2.65977,-2.660358l7.971069,7.97048l-2.660358,2.660358l-7.97048,-7.97048zm8.070538,-8.070538l2.464363,-2.464363l7.971069,7.971069l-2.463774,2.463774l-7.971657,-7.97048zm-12.638467,20.609536c-1.908748,-1.908748 -2.157715,-4.855154 -0.751021,-7.037001l7.788022,7.788022c-0.901697,0.583278 -1.951714,0.899342 -3.05176,0.899342c-1.505574,0.000589 -2.921097,-0.585632 -3.98524,-1.650364zm28.484079,-20.513598l-7.971069,-7.971069l3.543809,-3.543809l7.971069,7.971069l-3.543809,3.543809zm7.559655,-10.348911l-5.178281,-5.177693l19.000961,-18.318803l4.413723,4.578524l-18.236402,18.917972zm70.601316,26.293403l-2.65977,-2.65977l7.97048,-7.97048l2.65977,2.65977l-7.97048,7.97048zm-8.070538,-8.070538l-2.463774,-2.463186l7.971069,-7.971069l2.463774,2.463774l-7.971069,7.97048zm20.609536,12.638467c-1.064732,1.06532 -2.479666,1.651541 -3.98524,1.651541c-1.100046,0 -2.150064,-0.316065 -3.05176,-0.899931l7.788611,-7.788611c0.583866,0.902285 0.899931,1.951714 0.899931,3.052349c-0.000589,1.504986 -0.586809,2.920508 -1.651541,3.984652zm-20.51301,-28.484079l-7.971069,7.971069l-3.544398,-3.544398l7.971069,-7.971069l3.544398,3.544398z"/>
   <g stroke="null" transform="matrix(0.5885748219632824,0,0,0.5885748219632824,-521.6657626954548,-523.5793075545807) " id="svg_280"/>
   <g stroke="null" transform="matrix(0.5885748219632824,0,0,0.5885748219632824,-521.6657626954548,-523.5793075545807) " id="svg_281"/>
   <g stroke="null" transform="matrix(0.5885748219632824,0,0,0.5885748219632824,-521.6657626954548,-523.5793075545807) " id="svg_282"/>
   <g stroke="null" transform="matrix(0.5885748219632824,0,0,0.5885748219632824,-521.6657626954548,-523.5793075545807) " id="svg_283"/>
   <g stroke="null" transform="matrix(0.5885748219632824,0,0,0.5885748219632824,-521.6657626954548,-523.5793075545807) " id="svg_284"/>
   <g stroke="null" transform="matrix(0.5885748219632824,0,0,0.5885748219632824,-521.6657626954548,-523.5793075545807) " id="svg_285"/>
   <g stroke="null" transform="matrix(0.5885748219632824,0,0,0.5885748219632824,-521.6657626954548,-523.5793075545807) " id="svg_286"/>
   <g stroke="null" transform="matrix(0.5885748219632824,0,0,0.5885748219632824,-521.6657626954548,-523.5793075545807) " id="svg_287"/>
   <g stroke="null" transform="matrix(0.5885748219632824,0,0,0.5885748219632824,-521.6657626954548,-523.5793075545807) " id="svg_288"/>
   <g stroke="null" transform="matrix(0.5885748219632824,0,0,0.5885748219632824,-521.6657626954548,-523.5793075545807) " id="svg_289"/>
   <g stroke="null" transform="matrix(0.5885748219632824,0,0,0.5885748219632824,-521.6657626954548,-523.5793075545807) " id="svg_290"/>
   <g stroke="null" transform="matrix(0.5885748219632824,0,0,0.5885748219632824,-521.6657626954548,-523.5793075545807) " id="svg_291"/>
   <g stroke="null" transform="matrix(0.5885748219632824,0,0,0.5885748219632824,-521.6657626954548,-523.5793075545807) " id="svg_292"/>
   <g stroke="null" transform="matrix(0.5885748219632824,0,0,0.5885748219632824,-521.6657626954548,-523.5793075545807) " id="svg_293"/>
   <g stroke="null" transform="matrix(0.5885748219632824,0,0,0.5885748219632824,-521.6657626954548,-523.5793075545807) " id="svg_294"/>
  </g>
 </g>
</svg>