<svg width="324.306" height="324.306" xmlns="http://www.w3.org/2000/svg">
 <defs>
  <radialGradient spreadMethod="pad" id="svg_179">
   <stop offset="0" stop-opacity="0.992188" stop-color="#ffed30"/>
   <stop offset="1" stop-opacity="0.996094" stop-color="#ff0000"/>
  </radialGradient>
 </defs>
 <g>
  <title>background</title>
  <rect fill="none" id="canvas_background" height="326.306" width="326.306" y="-1" x="-1"/>
 </g>
 <g>
  <title>Layer 1</title>
  <g id="svg_3"/>
  <g id="svg_4"/>
  <g id="svg_5"/>
  <g id="svg_6"/>
  <g id="svg_7"/>
  <g id="svg_8"/>
  <g id="svg_9"/>
  <g id="svg_10"/>
  <g id="svg_11"/>
  <g id="svg_12"/>
  <g id="svg_13"/>
  <g id="svg_14"/>
  <g id="svg_15"/>
  <g id="svg_16"/>
  <g id="svg_17"/>
  <ellipse stroke="#000000" ry="144.5" rx="144.5" id="svg_18" cy="160.653" cx="156.653015" stroke-width="10.5" fill="#000000"/>
  <ellipse stroke="null" ry="131.499994" rx="131.499994" id="svg_19" cy="160.652994" cx="156.65301" stroke-opacity="null" stroke-width="null" fill="url(#svg_179)"/>
  <g stroke="null" id="svg_105">
   <g stroke="null" transform="matrix(0.8831006803228458,0,0,0.8831006803228458,-894.9457916656168,-897.8721470778055) " id="svg_90"/>
   <g stroke="null" transform="matrix(0.8831006803228458,0,0,0.8831006803228458,-894.9457916656168,-897.8721470778055) " id="svg_91"/>
   <g stroke="null" transform="matrix(0.8831006803228458,0,0,0.8831006803228458,-894.9457916656168,-897.8721470778055) " id="svg_92"/>
   <g stroke="null" transform="matrix(0.8831006803228458,0,0,0.8831006803228458,-894.9457916656168,-897.8721470778055) " id="svg_93"/>
   <g stroke="null" transform="matrix(0.8831006803228458,0,0,0.8831006803228458,-894.9457916656168,-897.8721470778055) " id="svg_94"/>
   <g stroke="null" transform="matrix(0.8831006803228458,0,0,0.8831006803228458,-894.9457916656168,-897.8721470778055) " id="svg_95"/>
   <g stroke="null" transform="matrix(0.8831006803228458,0,0,0.8831006803228458,-894.9457916656168,-897.8721470778055) " id="svg_96"/>
   <g stroke="null" transform="matrix(0.8831006803228458,0,0,0.8831006803228458,-894.9457916656168,-897.8721470778055) " id="svg_97"/>
   <g stroke="null" transform="matrix(0.8831006803228458,0,0,0.8831006803228458,-894.9457916656168,-897.8721470778055) " id="svg_98"/>
   <g stroke="null" transform="matrix(0.8831006803228458,0,0,0.8831006803228458,-894.9457916656168,-897.8721470778055) " id="svg_99"/>
   <g stroke="null" transform="matrix(0.8831006803228458,0,0,0.8831006803228458,-894.9457916656168,-897.8721470778055) " id="svg_100"/>
   <g stroke="null" transform="matrix(0.8831006803228458,0,0,0.8831006803228458,-894.9457916656168,-897.8721470778055) " id="svg_101"/>
   <g stroke="null" transform="matrix(0.8831006803228458,0,0,0.8831006803228458,-894.9457916656168,-897.8721470778055) " id="svg_102"/>
   <g stroke="null" transform="matrix(0.8831006803228458,0,0,0.8831006803228458,-894.9457916656168,-897.8721470778055) " id="svg_103"/>
   <g stroke="null" transform="matrix(0.8831006803228458,0,0,0.8831006803228458,-894.9457916656168,-897.8721470778055) " id="svg_104"/>
  </g>
  <g id="svg_178">
   <g transform="matrix(10.604436433761567,0,0,11.388726538959324,33.58256721185909,-112.75424422106772) " id="svg_161">
    <path stroke="#000000" stroke-width="0" fill="#ffffff" id="svg_162" d="m12.413213,16.289017c0.249,0 0.449,-0.043 0.449,-0.097c0,-0.055 -0.201,-0.098 -0.449,-0.098c-0.25,0 -0.451,0.043 -0.451,0.098c0,0.054 0.201,0.097 0.451,0.097zm-1.802,-0.198c-0.25,0 -0.451,0.043 -0.451,0.096c0,0.056 0.201,0.097 0.451,0.097c0.249,0 0.449,-0.041 0.449,-0.097c0,-0.053 -0.2,-0.096 -0.449,-0.096zm9.498,13.6c0.042,-0.129 0.166,-0.578 0.047,-1.219c-0.141,-0.758 -0.679,-1.551 -1.41,-1.611c-0.729,-0.061 -1.246,0.007 -1.439,-0.08c-0.191,-0.094 -0.364,-0.215 -0.526,-0.235s-0.214,0 -0.214,0s0.285,-0.262 0.275,-0.566c-0.012,-0.303 -0.052,-1.533 0.01,-1.785c0.059,-0.252 0.081,-1.908 -0.123,-2.645c-0.204,-0.744 -0.901,-1.484 -1.37,-1.664c-0.466,-0.186 -1.408,-0.457 -1.669,-0.57c-0.267,-0.108 -0.186,-0.141 -0.346,-0.129c-0.164,0.008 -0.307,0.09 -0.377,0.039c-0.069,-0.051 -0.101,-0.252 -0.051,-0.404c0.051,-0.151 0.083,-0.233 0.083,-0.233s0.004,0.051 0.019,0.119c0.003,0.008 0,0.014 0.005,0.022c0.032,0.152 0.105,0.375 0.261,0.354c0.233,-0.031 0.152,-0.64 0.131,-0.842c0,0 0.254,-0.601 0.254,-1.113c0,-0.519 0.03,-0.711 0.082,-0.844c0.051,-0.132 0.141,-0.576 0.101,-0.994c-0.042,-0.416 -0.242,-0.922 -0.608,-1.174c-0.365,-0.255 -0.72,-0.519 -0.771,-0.572c-0.053,-0.051 -0.602,-0.244 -0.956,-0.234c-0.356,0.01 -0.761,0.039 -1.157,0.356c-0.395,0.314 -0.811,0.648 -0.882,0.718c-0.07,0.072 -0.345,0.721 -0.294,1.279c0.051,0.557 0.184,0.78 0.192,0.873c0.013,0.09 -0.029,0.78 0.122,1.166c0.153,0.384 0.204,0.608 0.193,0.791c-0.009,0.184 -0.101,0.507 0.052,0.526c0.151,0.021 0.243,-0.041 0.314,-0.192c0.068,-0.148 0.009,-0.306 0.009,-0.306s0.182,0.467 0.102,0.569c-0.082,0.101 -0.245,0.071 -0.378,0.101c-0.128,0.031 -1.73,0.537 -2.065,0.632c-0.335,0.09 -1.33,0.737 -1.449,1.56c-0.124,0.82 -0.071,2.575 -0.082,2.858c-0.012,0.284 0.142,1.573 0.212,1.817c0.07,0.242 0.185,0.404 0.092,0.484c-0.092,0.082 -0.231,0.133 -0.263,0.205c-0.031,0.071 -0.195,0 -0.204,0.09c-0.012,0.094 -0.315,0.062 -0.589,0.039c-0.274,-0.019 -0.943,-0.039 -1.45,0.315s-0.822,0.892 -0.881,1.392c-0.054,0.426 0.059,0.961 0.091,1.104l-1.062,0l0,1.688l19.025,0l0,-1.688l-1.057,0l0.001,0.003l0,0zm-6.551,-9.813l-0.005,0c-0.002,-0.027 -0.003,-0.045 -0.003,-0.045s0.004,0.017 0.008,0.045zm-3.512,-1.639c-0.344,-0.506 -0.456,-1.063 -0.447,-1.247c0.006,-0.101 0.022,-0.22 0.034,-0.318c0.039,-0.076 0.081,-0.189 0.081,-0.34c0,-0.283 0.074,-1.119 0.164,-1.254c0.09,-0.136 0.491,-0.326 0.808,-0.345c0.312,-0.012 2.223,0.062 2.371,0.209c0.148,0.148 0.269,0.521 0.284,0.806c0.014,0.287 0.029,0.553 0.043,0.717c0.007,0.066 0.029,0.146 0.052,0.217c-0.004,0.223 -0.053,0.601 -0.113,0.787c-0.081,0.252 -0.364,0.932 -0.67,1.123c-0.304,0.197 -0.801,0.234 -1.237,0.226c-0.436,-0.013 -1.026,-0.072 -1.37,-0.581zm0.887,8.88c0.291,0.03 0.352,-0.076 0.352,-0.076s0.029,-0.318 0.135,-0.318s0.152,0.045 0.152,0.18c0,0.14 0,0.429 -0.152,0.474c-0.152,0.047 -0.902,0.145 -1.281,-0.037c-0.381,-0.185 -1.102,-0.422 -1.01,-0.682c0,0 0.329,-0.449 0.68,-0.375c0.089,0.018 0.53,-0.017 0.942,-0.017c0.388,-0.002 0.748,-0.014 0.775,0.029c0.062,0.092 0.123,0.229 -0.075,0.26c-0.197,0.029 -0.808,0.045 -0.896,0.105c-0.093,0.062 0.088,0.425 0.378,0.457zm-0.732,-3.209c-0.006,-0.015 -0.01,-0.025 -0.016,-0.035c0.153,-0.019 0.514,0.084 0.84,-0.113c0.426,-0.258 0.578,-0.75 0.578,-0.75s-0.169,0.212 -0.533,0.456c-0.294,0.197 -0.779,0.213 -0.955,0.213c-0.411,-1.312 -0.104,-4.181 -0.104,-4.181l0.421,-0.215l0.151,0.075c0,0 0.366,0.646 0.923,0.685c0.557,0.041 1.035,-0.724 1.035,-0.724s0.23,0.039 0.366,0.039c0.134,0 0.343,0.14 0.343,0.14s0.209,0.918 0.192,2.537c-0.008,0.688 -0.11,1.229 -0.265,1.645c-0.177,0 -0.657,-0.016 -0.953,-0.213c-0.362,-0.244 -0.53,-0.457 -0.53,-0.457s0.151,0.492 0.576,0.75c0.32,0.193 0.673,0.094 0.829,0.111c-0.201,0.448 -0.47,0.727 -0.731,0.875c-0.517,0.293 -1.63,0.33 -2.167,-0.838zm2.82,2.22c-0.012,0.004 -0.034,0.01 -0.034,0.01s0.01,-0.006 0.017,-0.012c0.006,0 0.011,0.002 0.017,0.002zm0.049,1.297c-0.379,0.184 -1.133,-0.004 -1.286,-0.051c-0.151,-0.045 -0.151,-0.334 -0.151,-0.474c0,-0.135 0.046,-0.18 0.151,-0.18c0.107,0 0.139,0.318 0.139,0.318s0.06,0.106 0.35,0.076c0.289,-0.031 0.471,-0.396 0.38,-0.457s-0.699,-0.076 -0.896,-0.105c-0.2,-0.031 -0.138,-0.168 -0.077,-0.26c0.028,-0.043 0.391,-0.031 0.773,-0.029c0.417,0 0.858,-0.008 0.945,0.016c0.168,0.048 0.65,0.388 0.65,0.388c0.09,0.258 -0.597,0.577 -0.978,0.758zm-1.098,-10.124l-0.834,0c0,0 0.209,0.285 0.388,0.285s0.446,-0.285 0.446,-0.285z"/>
   </g>
   <g transform="matrix(32.286290868407605,0,0,32.286290868407605,0,0) " id="svg_163"/>
   <g transform="matrix(32.286290868407605,0,0,32.286290868407605,0,0) " id="svg_164"/>
   <g transform="matrix(32.286290868407605,0,0,32.286290868407605,0,0) " id="svg_165"/>
   <g transform="matrix(32.286290868407605,0,0,32.286290868407605,0,0) " id="svg_166"/>
   <g transform="matrix(32.286290868407605,0,0,32.286290868407605,0,0) " id="svg_167"/>
   <g transform="matrix(32.286290868407605,0,0,32.286290868407605,0,0) " id="svg_168"/>
   <g transform="matrix(32.286290868407605,0,0,32.286290868407605,0,0) " id="svg_169"/>
   <g transform="matrix(32.286290868407605,0,0,32.286290868407605,0,0) " id="svg_170"/>
   <g transform="matrix(32.286290868407605,0,0,32.286290868407605,0,0) " id="svg_171"/>
   <g transform="matrix(32.286290868407605,0,0,32.286290868407605,0,0) " id="svg_172"/>
   <g transform="matrix(32.286290868407605,0,0,32.286290868407605,0,0) " id="svg_173"/>
   <g transform="matrix(32.286290868407605,0,0,32.286290868407605,0,0) " id="svg_174"/>
   <g transform="matrix(32.286290868407605,0,0,32.286290868407605,0,0) " id="svg_175"/>
   <g transform="matrix(32.286290868407605,0,0,32.286290868407605,0,0) " id="svg_176"/>
   <g transform="matrix(32.286290868407605,0,0,32.286290868407605,0,0) " id="svg_177"/>
  </g>
 </g>
</svg>