<svg width="324.306" height="324.306" xmlns="http://www.w3.org/2000/svg">

 <g>
  <title>background</title>
  <rect x="-1" y="-1" width="326.306" height="326.306" id="canvas_background" fill="none"/>
 </g>
 <g>
  <title>Layer 1</title>
  <g id="svg_3"/>
  <g id="svg_4"/>
  <g id="svg_5"/>
  <g id="svg_6"/>
  <g id="svg_7"/>
  <g id="svg_8"/>
  <g id="svg_9"/>
  <g id="svg_10"/>
  <g id="svg_11"/>
  <g id="svg_12"/>
  <g id="svg_13"/>
  <g id="svg_14"/>
  <g id="svg_15"/>
  <g id="svg_16"/>
  <g id="svg_17"/>
  <ellipse fill="#000000" stroke-width="1.5" cx="156.653015" cy="160.653" id="svg_18" rx="144.5" ry="144.5" stroke="#000000"/>
  <ellipse fill="#00c7ff" stroke-width="null" stroke-opacity="null" cx="156.65301" cy="160.652994" id="svg_19" rx="131.499994" ry="131.499994" stroke="null"/>
  <g stroke="null" id="svg_42">
   <g stroke="null" transform="matrix(4.659762248322281,0,0,4.640252381735274,-2.517616300426198,-3.8030353819194715) " id="svg_22">
    <g stroke="null" id="svg_23">
     <path stroke="null" id="svg_25" fill="#ffffff" d="m60.203533,35.556962c-0.291,-0.76 -1.438,-1.024 -2.56,-0.592l-7.893,3.24c-2.472,-0.561 -5.57,-1.002 -9.062,-1.275l-1.385,1.691c2.937,0.151 5.57,0.393 7.718,0.705l-12.226,5.02c-0.789,0.013 -1.587,0.021 -2.401,0.021c-11.361,0 -20.571,-1.324 -20.571,-2.96c0,-1.635 9.21,-2.96 20.571,-2.96c0.785,0 1.557,0.008 2.319,0.02l1.34,-1.791c-1.192,-0.039 -2.414,-0.059 -3.659,-0.059c-12.979,0 -23.5,2.184 -23.5,4.875c0,2.692 10.521,13.91 23.5,13.91s23.5,-11.218 23.5,-13.91c0,-0.718 -0.755,-1.398 -2.097,-2.012l4.902,-1.767c1.123,-0.432 1.796,-1.398 1.504,-2.156zm-19.204,8.534l10.493,-3.781c0.942,0.339 1.474,0.709 1.474,1.096c-0.001,1.191 -4.909,2.217 -11.967,2.685z"/>
     <path stroke="null" id="svg_26" fill="#ffffff" d="m34.223533,40.792962c-0.693,0.887 -1.241,1.615 -0.643,2.084c0.132,0.103 0.262,0.148 0.393,0.148c0.465,0 0.934,-0.582 1.475,-1.273l2.611,-3.189l1.408,-1.721l13.365,-16.328c0.693,-0.886 0.771,-1.984 0.172,-2.452c-0.184,-0.143 -0.408,-0.211 -0.651,-0.211c-0.554,0 -1.207,0.351 -1.688,0.966l-13.396,17.905l-1.325,1.771l-1.721,2.3z"/>
    </g>
   </g>
   <g stroke="null" transform="matrix(4.659762248322281,0,0,4.640252381735274,-2.517616300426198,-3.8030353819194715) " id="svg_27"/>
   <g stroke="null" transform="matrix(4.659762248322281,0,0,4.640252381735274,-2.517616300426198,-3.8030353819194715) " id="svg_28"/>
   <g stroke="null" transform="matrix(4.659762248322281,0,0,4.640252381735274,-2.517616300426198,-3.8030353819194715) " id="svg_29"/>
   <g stroke="null" transform="matrix(4.659762248322281,0,0,4.640252381735274,-2.517616300426198,-3.8030353819194715) " id="svg_30"/>
   <g stroke="null" transform="matrix(4.659762248322281,0,0,4.640252381735274,-2.517616300426198,-3.8030353819194715) " id="svg_31"/>
   <g stroke="null" transform="matrix(4.659762248322281,0,0,4.640252381735274,-2.517616300426198,-3.8030353819194715) " id="svg_32"/>
   <g stroke="null" transform="matrix(4.659762248322281,0,0,4.640252381735274,-2.517616300426198,-3.8030353819194715) " id="svg_33"/>
   <g stroke="null" transform="matrix(4.659762248322281,0,0,4.640252381735274,-2.517616300426198,-3.8030353819194715) " id="svg_34"/>
   <g stroke="null" transform="matrix(4.659762248322281,0,0,4.640252381735274,-2.517616300426198,-3.8030353819194715) " id="svg_35"/>
   <g stroke="null" transform="matrix(4.659762248322281,0,0,4.640252381735274,-2.517616300426198,-3.8030353819194715) " id="svg_36"/>
   <g stroke="null" transform="matrix(4.659762248322281,0,0,4.640252381735274,-2.517616300426198,-3.8030353819194715) " id="svg_37"/>
   <g stroke="null" transform="matrix(4.659762248322281,0,0,4.640252381735274,-2.517616300426198,-3.8030353819194715) " id="svg_38"/>
   <g stroke="null" transform="matrix(4.659762248322281,0,0,4.640252381735274,-2.517616300426198,-3.8030353819194715) " id="svg_39"/>
   <g stroke="null" transform="matrix(4.659762248322281,0,0,4.640252381735274,-2.517616300426198,-3.8030353819194715) " id="svg_40"/>
   <g stroke="null" transform="matrix(4.659762248322281,0,0,4.640252381735274,-2.517616300426198,-3.8030353819194715) " id="svg_41"/>
  </g>
  <g stroke="null" id="svg_64">
   <g stroke="null" transform="matrix(2.0297333432009728,0,0,2.5390620634888466,13.058949717294581,24.114131187455996) " id="svg_47">
    <path stroke="null" id="svg_48" fill="#ffffff" d="m76.542714,31.772893c-5.748,-7.394 -11.577,-13.352 -11.812,-13.592c-2.23,-2.409 -4.738,-3.631 -7.453,-3.631c-4.995,0 -8.789,4.151 -8.953,4.334c-3.851,4.426 -9.72,13.98 -9.791,14.101c-1.798,3.401 -2.197,6.535 -1.187,9.313c2.275,6.258 8.795,8.486 14.934,8.795c5.029,0.252 10.623,0.554 15.496,-0.894c5.006,-1.485 9.682,-4.633 10.791,-10.022c0.967,-4.689 -1.91,-8.265 -2.025,-8.404zm0.214,8.031c-0.562,2.727 -2.612,5.214 -6.097,7.394c-0.372,0.231 -0.863,0.448 -1.387,0.631c-0.028,-0.129 -0.063,-0.263 -0.109,-0.403c-0.938,-2.894 -1.172,-7.949 -1.227,-10.705c-0.035,-1.75 -1.42,-3.133 -3.153,-3.15l-19.339,-0.199c-0.003,0 -0.03,0 -0.033,0c-1.696,0 -3.267,1.323 -3.502,2.949c-0.454,3.145 -0.46,6.391 -0.367,8.756c-0.946,-0.808 -1.925,-1.934 -2.462,-3.411c-0.823,-2.267 -0.463,-4.888 1.059,-7.768c0.056,-0.093 5.864,-9.53 9.568,-13.788c0.034,-0.037 3.405,-3.71 7.568,-3.71c2.178,0 4.231,1.025 6.115,3.06c0.06,0.06 5.957,6.073 11.7,13.461c0.1,0.125 2.438,3.131 1.666,6.883z"/>
   </g>
   <g stroke="null" transform="matrix(2.0297333432009728,0,0,2.5390620634888466,13.058949717294581,24.114131187455996) " id="svg_49"/>
   <g stroke="null" transform="matrix(2.0297333432009728,0,0,2.5390620634888466,13.058949717294581,24.114131187455996) " id="svg_50"/>
   <g stroke="null" transform="matrix(2.0297333432009728,0,0,2.5390620634888466,13.058949717294581,24.114131187455996) " id="svg_51"/>
   <g stroke="null" transform="matrix(2.0297333432009728,0,0,2.5390620634888466,13.058949717294581,24.114131187455996) " id="svg_52"/>
   <g stroke="null" transform="matrix(2.0297333432009728,0,0,2.5390620634888466,13.058949717294581,24.114131187455996) " id="svg_53"/>
   <g stroke="null" transform="matrix(2.0297333432009728,0,0,2.5390620634888466,13.058949717294581,24.114131187455996) " id="svg_54"/>
   <g stroke="null" transform="matrix(2.0297333432009728,0,0,2.5390620634888466,13.058949717294581,24.114131187455996) " id="svg_55"/>
   <g stroke="null" transform="matrix(2.0297333432009728,0,0,2.5390620634888466,13.058949717294581,24.114131187455996) " id="svg_56"/>
   <g stroke="null" transform="matrix(2.0297333432009728,0,0,2.5390620634888466,13.058949717294581,24.114131187455996) " id="svg_57"/>
   <g stroke="null" transform="matrix(2.0297333432009728,0,0,2.5390620634888466,13.058949717294581,24.114131187455996) " id="svg_58"/>
   <g stroke="null" transform="matrix(2.0297333432009728,0,0,2.5390620634888466,13.058949717294581,24.114131187455996) " id="svg_59"/>
   <g stroke="null" transform="matrix(2.0297333432009728,0,0,2.5390620634888466,13.058949717294581,24.114131187455996) " id="svg_60"/>
   <g stroke="null" transform="matrix(2.0297333432009728,0,0,2.5390620634888466,13.058949717294581,24.114131187455996) " id="svg_61"/>
   <g stroke="null" transform="matrix(2.0297333432009728,0,0,2.5390620634888466,13.058949717294581,24.114131187455996) " id="svg_62"/>
   <g stroke="null" transform="matrix(2.0297333432009728,0,0,2.5390620634888466,13.058949717294581,24.114131187455996) " id="svg_63"/>
  </g>
 </g>
</svg>