<svg width="324.306" height="324.306" xmlns="http://www.w3.org/2000/svg">
 <defs>
  <radialGradient r="0.5" cy="0.5" cx="0.5" spreadMethod="pad" id="svg_156">
   <stop offset="0" stop-opacity="0.996094" stop-color="#029102"/>
   <stop offset="1" stop-opacity="0.992188" stop-color="#09bf09"/>
  </radialGradient>
 </defs>
 <g>
  <title>background</title>
  <rect fill="none" id="canvas_background" height="326.306" width="326.306" y="-1" x="-1"/>
 </g>
 <g>
  <title>Layer 1</title>
  <g id="svg_3"/>
  <g id="svg_4"/>
  <g id="svg_5"/>
  <g id="svg_6"/>
  <g id="svg_7"/>
  <g id="svg_8"/>
  <g id="svg_9"/>
  <g id="svg_10"/>
  <g id="svg_11"/>
  <g id="svg_12"/>
  <g id="svg_13"/>
  <g id="svg_14"/>
  <g id="svg_15"/>
  <g id="svg_16"/>
  <g id="svg_17"/>
  <ellipse stroke="#319b14" ry="144.5" rx="144.5" id="svg_18" cy="160.653" cx="156.653015" stroke-width="10.5" fill="#cae1f7"/>
  <ellipse stroke="null" ry="131.499994" rx="131.499994" id="svg_19" cy="160.652994" cx="156.65301" stroke-opacity="null" stroke-width="null" fill="url(#svg_156)"/>
  <g stroke="null" id="svg_105">
   <g stroke="null" transform="matrix(0.8831006803228458,0,0,0.8831006803228458,-894.9457916656168,-897.8721470778055) " id="svg_90"/>
   <g stroke="null" transform="matrix(0.8831006803228458,0,0,0.8831006803228458,-894.9457916656168,-897.8721470778055) " id="svg_91"/>
   <g stroke="null" transform="matrix(0.8831006803228458,0,0,0.8831006803228458,-894.9457916656168,-897.8721470778055) " id="svg_92"/>
   <g stroke="null" transform="matrix(0.8831006803228458,0,0,0.8831006803228458,-894.9457916656168,-897.8721470778055) " id="svg_93"/>
   <g stroke="null" transform="matrix(0.8831006803228458,0,0,0.8831006803228458,-894.9457916656168,-897.8721470778055) " id="svg_94"/>
   <g stroke="null" transform="matrix(0.8831006803228458,0,0,0.8831006803228458,-894.9457916656168,-897.8721470778055) " id="svg_95"/>
   <g stroke="null" transform="matrix(0.8831006803228458,0,0,0.8831006803228458,-894.9457916656168,-897.8721470778055) " id="svg_96"/>
   <g stroke="null" transform="matrix(0.8831006803228458,0,0,0.8831006803228458,-894.9457916656168,-897.8721470778055) " id="svg_97"/>
   <g stroke="null" transform="matrix(0.8831006803228458,0,0,0.8831006803228458,-894.9457916656168,-897.8721470778055) " id="svg_98"/>
   <g stroke="null" transform="matrix(0.8831006803228458,0,0,0.8831006803228458,-894.9457916656168,-897.8721470778055) " id="svg_99"/>
   <g stroke="null" transform="matrix(0.8831006803228458,0,0,0.8831006803228458,-894.9457916656168,-897.8721470778055) " id="svg_100"/>
   <g stroke="null" transform="matrix(0.8831006803228458,0,0,0.8831006803228458,-894.9457916656168,-897.8721470778055) " id="svg_101"/>
   <g stroke="null" transform="matrix(0.8831006803228458,0,0,0.8831006803228458,-894.9457916656168,-897.8721470778055) " id="svg_102"/>
   <g stroke="null" transform="matrix(0.8831006803228458,0,0,0.8831006803228458,-894.9457916656168,-897.8721470778055) " id="svg_103"/>
   <g stroke="null" transform="matrix(0.8831006803228458,0,0,0.8831006803228458,-894.9457916656168,-897.8721470778055) " id="svg_104"/>
  </g>
  <g stroke="null" id="svg_127">
   <g stroke="null" transform="matrix(4.448220605210419,0,0,3.9998346939451794,-39.52639078859856,-27.935899569713627) " id="svg_110">
    <path stroke="null" id="svg_111" fill="#ffffff" d="m44.976582,41.565344c7.527,1.313 14.429,2.967 19.631,4.66c2.066,0.672 3.629,1.278 4.825,1.83l-19.995,-22.753c-0.729,-0.83 -2.106,-1.073 -3.076,-0.544l-26.389,14.41c0.8,-0.062 1.716,-0.098 2.794,-0.098l0.22,0l0,0.169c5,0 13.51,0.847 21.99,2.326zm26.098,8.553c-3.114,-2.257 -13.644,-5.346 -26.379,-7.566c-8.736,-1.523 -16.636,-2.312 -21.929,-2.312c-2.05,0 -3.707,0.119 -4.872,0.359c-1.154,0.236 -1.824,0.593 -1.908,1.072c-0.307,1.76 7.381,4.641 18.331,7.103c0.016,0.173 0.031,0.343 0.049,0.522c0.016,0.161 0.035,0.33 0.052,0.496c0.111,1.041 0.251,2.156 0.432,3.292c0.316,1.985 0.876,4.779 1.744,6.817c0.235,0.549 0.483,1.013 0.742,1.399c-0.025,0.133 -0.042,0.269 -0.042,0.41c0,0.627 0.268,1.19 0.691,1.59l0,9.77c0,0.276 0.224,0.5 0.5,0.5s0.501,-0.224 0.501,-0.5l0,-9.231c0.02,0.005 0.037,0.014 0.057,0.018l0.371,13.476c0.008,0.271 0.23,0.736 0.5,0.736c0.005,0 0.009,0 0.014,0c0.276,-1 0.494,-0.473 0.486,-0.748l-0.369,-13.5c0.645,-0.171 1.175,-0.623 1.443,-1.222c3.752,-0.514 7.092,-4.083 8.711,-7.424c0.013,-0.026 0.428,-1.047 0.886,-2.429c0.05,-0.151 0.1,-0.308 0.15,-0.466c0.051,-0.16 0.101,-0.318 0.152,-0.484c5.445,0.711 10.245,1.076 13.84,1.076c4.08,0 6.612,-0.469 6.78,-1.432c0.069,-0.39 -0.264,-0.837 -0.933,-1.322zm-20.845,2.027c-0.05,0.158 -0.1,0.316 -0.148,0.465c-0.343,1.048 -0.656,1.87 -0.781,2.129c-1.364,2.813 -4.27,6.19 -7.634,6.817c-0.006,-0.085 -0.01,-0.17 -0.026,-0.253c4.166,-1.265 6.5,-4.779 7.74,-8.79c0.048,-0.155 0.096,-0.31 0.141,-0.466c0.046,-0.161 0.086,-0.324 0.129,-0.486c0.391,-1.484 0.653,-3.011 0.806,-4.501c0.044,-0.427 0.08,-0.851 0.108,-1.27c0.044,-0.007 0.085,-0.011 0.124,-0.011c0.195,0 0.338,0.087 0.439,0.245c0.158,0.247 0.209,0.668 0.188,1.193c-0.049,1.193 -0.48,2.927 -0.938,4.443c-0.049,0.166 -0.098,0.327 -0.148,0.485zm-10.091,10.538c-0.041,0.028 -0.078,0.06 -0.122,0.082c-0.161,0.081 -0.336,0.137 -0.528,0.137c-0.169,0 -0.328,-0.037 -0.474,-0.1c-0.011,-0.005 -0.018,-0.014 -0.028,-0.019c-0.142,-0.067 -0.266,-0.159 -0.37,-0.273c-0.195,-0.213 -0.321,-0.49 -0.321,-0.801c0,-0.011 0.006,-0.02 0.006,-0.031c0.001,-0.026 0.013,-0.048 0.015,-0.074c0.016,-0.172 0.068,-0.329 0.149,-0.472c0.01,-0.018 0.024,-0.034 0.035,-0.052c0.092,-0.144 0.21,-0.262 0.353,-0.355c0.148,-0.096 0.312,-0.158 0.496,-0.181c0.047,-0.006 0.089,-0.028 0.138,-0.028c0.193,0 0.369,0.057 0.53,0.138c0.188,0.095 0.337,0.241 0.452,0.417c0.093,0.143 0.154,0.301 0.179,0.477c0.006,0.039 0.022,0.075 0.023,0.115c0.001,0.016 0.009,0.03 0.009,0.047c0,0.163 -0.034,0.317 -0.093,0.458c-0.089,0.218 -0.255,0.386 -0.449,0.515l0,0zm-4.689,-12.663c-0.018,-0.166 -0.036,-0.331 -0.053,-0.495c-0.018,-0.177 -0.036,-0.35 -0.052,-0.523c-0.1,-1.032 -0.174,-2.001 -0.224,-2.84c-0.047,-0.763 -0.077,-1.413 -0.097,-1.923c-0.029,-0.73 -0.037,-1.166 -0.037,-1.166l1,-0.005c0,0 -0.017,0.504 -0.025,1.344c-0.004,0.476 -0.006,1.057 0.001,1.721c0.008,0.887 0.034,1.92 0.088,3.023c0.008,0.169 0.018,0.341 0.028,0.514c0.009,0.163 0.017,0.325 0.028,0.49c0.055,0.88 0.13,1.791 0.228,2.701c0.262,2.435 0.692,4.865 1.326,6.591c0.092,0.25 0.191,0.48 0.292,0.697c-0.03,0.029 -0.054,0.063 -0.082,0.094c-0.122,-0.227 -0.242,-0.467 -0.356,-0.733c-0.73,-1.715 -1.287,-4.142 -1.676,-6.583c-0.156,-0.98 -0.284,-1.961 -0.389,-2.907zm13.059,1.881c-0.046,0.155 -0.087,0.311 -0.136,0.466c-1.13,3.533 -3.239,6.88 -7.143,8.024c-0.401,-0.528 -1.029,-0.875 -1.741,-0.875c-0.236,0 -0.46,0.047 -0.674,0.117c-0.07,-0.155 -0.142,-0.326 -0.217,-0.529c-0.542,-1.475 -0.981,-3.672 -1.27,-6.351c-0.088,-0.81 -0.153,-1.608 -0.205,-2.377c-0.011,-0.165 -0.023,-0.331 -0.032,-0.493c-0.01,-0.175 -0.019,-0.345 -0.028,-0.515c2,0.416 4.085,0.817 6.236,1.192c1.827,0.319 3.614,0.603 5.351,0.857c-0.043,0.162 -0.093,0.323 -0.141,0.484z"/>
   </g>
   <g stroke="null" transform="matrix(4.448220605210419,0,0,3.9998346939451794,-39.52639078859856,-27.935899569713627) " id="svg_112"/>
   <g stroke="null" transform="matrix(4.448220605210419,0,0,3.9998346939451794,-39.52639078859856,-27.935899569713627) " id="svg_113"/>
   <g stroke="null" transform="matrix(4.448220605210419,0,0,3.9998346939451794,-39.52639078859856,-27.935899569713627) " id="svg_114"/>
   <g stroke="null" transform="matrix(4.448220605210419,0,0,3.9998346939451794,-39.52639078859856,-27.935899569713627) " id="svg_115"/>
   <g stroke="null" transform="matrix(4.448220605210419,0,0,3.9998346939451794,-39.52639078859856,-27.935899569713627) " id="svg_116"/>
   <g stroke="null" transform="matrix(4.448220605210419,0,0,3.9998346939451794,-39.52639078859856,-27.935899569713627) " id="svg_117"/>
   <g stroke="null" transform="matrix(4.448220605210419,0,0,3.9998346939451794,-39.52639078859856,-27.935899569713627) " id="svg_118"/>
   <g stroke="null" transform="matrix(4.448220605210419,0,0,3.9998346939451794,-39.52639078859856,-27.935899569713627) " id="svg_119"/>
   <g stroke="null" transform="matrix(4.448220605210419,0,0,3.9998346939451794,-39.52639078859856,-27.935899569713627) " id="svg_120"/>
   <g stroke="null" transform="matrix(4.448220605210419,0,0,3.9998346939451794,-39.52639078859856,-27.935899569713627) " id="svg_121"/>
   <g stroke="null" transform="matrix(4.448220605210419,0,0,3.9998346939451794,-39.52639078859856,-27.935899569713627) " id="svg_122"/>
   <g stroke="null" transform="matrix(4.448220605210419,0,0,3.9998346939451794,-39.52639078859856,-27.935899569713627) " id="svg_123"/>
   <g stroke="null" transform="matrix(4.448220605210419,0,0,3.9998346939451794,-39.52639078859856,-27.935899569713627) " id="svg_124"/>
   <g stroke="null" transform="matrix(4.448220605210419,0,0,3.9998346939451794,-39.52639078859856,-27.935899569713627) " id="svg_125"/>
   <g stroke="null" transform="matrix(4.448220605210419,0,0,3.9998346939451794,-39.52639078859856,-27.935899569713627) " id="svg_126"/>
  </g>
 </g>
</svg>