<svg width="324.306" height="324.306" xmlns="http://www.w3.org/2000/svg">
 <defs>
  <radialGradient r="0.5" cy="0.5" cx="0.5" spreadMethod="pad" id="svg_77">
   <stop stop-opacity="0.988281" offset="0" stop-color="#510593"/>
   <stop offset="1" stop-opacity="0.964844" stop-color="#7203b7"/>
  </radialGradient>
 </defs>
 <g>
  <title>background</title>
  <rect fill="none" id="canvas_background" height="326.306" width="326.306" y="-1" x="-1"/>
 </g>
 <g>
  <title>Layer 1</title>
  <g id="svg_3"/>
  <g id="svg_4"/>
  <g id="svg_5"/>
  <g id="svg_6"/>
  <g id="svg_7"/>
  <g id="svg_8"/>
  <g id="svg_9"/>
  <g id="svg_10"/>
  <g id="svg_11"/>
  <g id="svg_12"/>
  <g id="svg_13"/>
  <g id="svg_14"/>
  <g id="svg_15"/>
  <g id="svg_16"/>
  <g id="svg_17"/>
  <ellipse stroke="#001dff" ry="144.5" rx="144.5" id="svg_18" cy="160.653" cx="156.653015" stroke-width="1.5" fill="#ffff00"/>
  <ellipse stroke="null" ry="131.499994" rx="131.499994" id="svg_19" cy="160.652994" cx="156.65301" stroke-opacity="null" stroke-width="null" fill="url(#svg_77)"/>
  <g stroke="null" id="svg_70">
   <path fill="#ffffff" stroke="null" id="svg_54" d="m253.552085,237.957171c-0.16622,-0.651907 -16.522662,-64.680186 -29.177271,-104.275485l20.950212,-39.428132c0.951912,-1.791563 0.523937,-4.006844 -1.026026,-5.312377c-1.55082,-1.305963 -3.799938,-1.344209 -5.394027,-0.093682l-24.009012,18.838267c-5.606087,-12.243133 -12.69188,-22.011856 -21.110863,-29.084425c-7.960593,-6.687527 -17.104006,-10.977136 -27.218182,-12.796201l-0.353005,-7.717601c-0.104959,-2.294352 -1.989934,-4.100525 -4.279321,-4.100525l-13.563252,0c-2.289816,0 -4.174791,1.806173 -4.279322,4.100525l-0.353004,7.717601c-10.113748,1.818636 -19.257162,6.108674 -27.217754,12.796201c-8.36372,7.026158 -15.411812,16.711512 -21.000763,28.842055l-23.970028,-20.622095c-1.551248,-1.333895 -3.82607,-1.385034 -5.433868,-0.118607c-1.60737,1.265568 -2.100462,3.493741 -1.177253,5.322691l21.007618,41.606026c-12.656322,39.591431 -29.026901,103.673427 -29.193122,104.325764c-0.328157,1.285765 -0.044982,2.651461 0.766414,3.700013c0.811824,1.048122 2.06062,1.661783 3.383958,1.661783l24.398431,0c2.003214,0 3.739105,-1.392339 4.179075,-3.353218l5.070583,-22.579105l28.694032,13.555542c1.334905,7.03819 7.515052,12.376351 14.914436,12.376351l33.984814,0c7.399383,0 13.579531,-5.338161 14.914436,-12.376351l28.694032,-13.555542l5.070582,22.579105c0.439971,1.960879 2.175861,3.353218 4.179076,3.353218l24.398002,0c1.323338,0 2.572134,-0.613661 3.383958,-1.661783c0.811396,-1.048982 1.094571,-2.414248 0.766414,-3.700013zm-46.938876,-127.750587l-38.01609,0l-1.625791,-35.562241c16.969059,3.70431 30.2697,15.636316 39.641881,35.562241zm-63.278182,-35.562241l-1.625791,35.562241l-38.016089,0c9.371752,-19.925925 22.671965,-31.857931 39.64188,-35.562241zm-48.976791,43.121699c0.005998,0.005157 0.012424,0.009455 0.018422,0.014611c0.065117,0.055436 0.133662,0.107434 0.202634,0.159002c0.04027,0.030511 0.08054,0.061022 0.121667,0.089815c0.061262,0.042973 0.124665,0.082938 0.188926,0.122904c0.054836,0.034378 0.1101,0.067468 0.166649,0.098839c0.056549,0.0318 0.113955,0.062311 0.172218,0.091533c0.070687,0.035668 0.14223,0.068328 0.21463,0.099698c0.033416,0.014611 0.065117,0.03223 0.098961,0.045982c0.01885,0.007735 0.038128,0.012462 0.056978,0.019768c0.072829,0.028362 0.147371,0.053287 0.221913,0.077352c0.053122,0.017619 0.105816,0.036098 0.159366,0.051138c0.071115,0.020198 0.143087,0.036098 0.215059,0.052428c0.058262,0.013322 0.116097,0.028792 0.17436,0.039535c0.06426,0.012033 0.129378,0.018909 0.194066,0.027933c0.065546,0.009025 0.130663,0.020627 0.196209,0.026644c0.055693,0.005157 0.112242,0.005157 0.168791,0.008165c0.071544,0.003438 0.143087,0.009884 0.214202,0.009884c0.001713,0 0.003855,-0.00043 0.005569,-0.00043l48.652061,0c2.289816,0 4.174791,-1.806174 4.279322,-4.100526l2.383208,-52.119479l5.379462,0l2.383208,52.119479c0.104959,2.294352 1.989934,4.100526 4.279321,4.100526l48.646492,0c0.003856,0 0.007283,0.000859 0.011139,0.000859c0.059548,0 0.119096,-0.006016 0.178644,-0.008594c0.062547,-0.002579 0.124665,-0.003438 0.186784,-0.009025c0.06426,-0.005586 0.128093,-0.0159 0.192353,-0.024065c0.062547,-0.008595 0.125094,-0.0159 0.186784,-0.027073c0.060833,-0.010744 0.121238,-0.024925 0.181643,-0.038247c0.066831,-0.01504 0.133233,-0.030511 0.199208,-0.04856c0.05612,-0.01547 0.112241,-0.032659 0.167934,-0.050278c0.070686,-0.022347 0.140088,-0.046842 0.209489,-0.073055c0.032559,-0.012463 0.065546,-0.021057 0.097676,-0.034379c0.020563,-0.008165 0.038985,-0.018908 0.05912,-0.027503c0.075399,-0.03223 0.149512,-0.067468 0.223198,-0.103996c0.048838,-0.024065 0.098533,-0.045981 0.146085,-0.071765c0.06726,-0.036528 0.132377,-0.077782 0.197923,-0.117748c0.113098,-0.069187 0.221484,-0.142671 0.326443,-0.220453c0.02699,-0.020198 0.055264,-0.037817 0.081397,-0.058874l0.035557,-0.027933c0.017993,-0.014181 0.036415,-0.027933 0.054407,-0.042543l12.359439,-9.696957l-11.077656,20.847705l-123.971806,0l-10.892156,-21.571808l12.052701,10.369491zm92.353493,65.365183c-1.853702,-6.31108 -7.682558,-10.931584 -14.566144,-10.931584l-33.984814,0c-6.883586,0 -12.712443,4.620504 -14.566144,10.931584l-21.349484,0l10.232844,-45.567318l85.35081,0l10.232844,45.567318l-21.349912,0zm-104.835454,51.593054l-15.439659,0c4.155513,-16.03468 16.883807,-64.497979 27.252454,-97.160802l10.00579,0l-11.002256,48.99402c-0.000429,0.002149 -0.001285,0.004727 -0.001714,0.006876l-5.307918,23.636682c-0.001285,0.005586 -0.00257,0.011173 -0.003856,0.017189l-5.502841,24.506035zm18.438482,-42.998366l22.664254,0l0,29.590652l-26.498036,-12.518163l3.833782,-17.072489zm87.012159,29.590222l0,-13.276214c0,-2.372994 -1.917962,-4.297345 -4.284034,-4.297345s-4.284034,1.924351 -4.284034,4.297345l0,20.050118c0,3.658329 -2.966693,6.63424 -6.613692,6.63424l-33.984813,0c-3.64657,0 -6.613692,-2.975911 -6.613692,-6.63424l0,-40.6619c0,-3.658329 2.966693,-6.63424 6.613692,-6.63424l33.984813,0c3.64657,0 6.613692,2.975911 6.613692,6.63424l0,7.719749c0,2.372994 1.917962,4.297344 4.284034,4.297344s4.284034,-1.92435 4.284034,-4.297344l0,-3.422405l22.664254,0l3.833782,17.072489l-26.498036,12.518163zm41.102737,13.408144l-5.503271,-24.506035c-0.001285,-0.005586 -0.00257,-0.011173 -0.003855,-0.017189l-5.307918,-23.636682c-0.000429,-0.002149 -0.001286,-0.004727 -0.001714,-0.006876l-11.002256,-48.99402l10.00579,0c10.369076,32.662394 23.096941,81.126122 27.252454,97.160802l-15.43923,0z"/>
   <g stroke="null" transform="matrix(0.4284034058221944,0,0,0.4297344116611525,-1177.5190874475368,-1176.2910662742427) " id="svg_55"/>
   <g stroke="null" transform="matrix(0.4284034058221944,0,0,0.4297344116611525,-1177.5190874475368,-1176.2910662742427) " id="svg_56"/>
   <g stroke="null" transform="matrix(0.4284034058221944,0,0,0.4297344116611525,-1177.5190874475368,-1176.2910662742427) " id="svg_57"/>
   <g stroke="null" transform="matrix(0.4284034058221944,0,0,0.4297344116611525,-1177.5190874475368,-1176.2910662742427) " id="svg_58"/>
   <g stroke="null" transform="matrix(0.4284034058221944,0,0,0.4297344116611525,-1177.5190874475368,-1176.2910662742427) " id="svg_59"/>
   <g stroke="null" transform="matrix(0.4284034058221944,0,0,0.4297344116611525,-1177.5190874475368,-1176.2910662742427) " id="svg_60"/>
   <g stroke="null" transform="matrix(0.4284034058221944,0,0,0.4297344116611525,-1177.5190874475368,-1176.2910662742427) " id="svg_61"/>
   <g stroke="null" transform="matrix(0.4284034058221944,0,0,0.4297344116611525,-1177.5190874475368,-1176.2910662742427) " id="svg_62"/>
   <g stroke="null" transform="matrix(0.4284034058221944,0,0,0.4297344116611525,-1177.5190874475368,-1176.2910662742427) " id="svg_63"/>
   <g stroke="null" transform="matrix(0.4284034058221944,0,0,0.4297344116611525,-1177.5190874475368,-1176.2910662742427) " id="svg_64"/>
   <g stroke="null" transform="matrix(0.4284034058221944,0,0,0.4297344116611525,-1177.5190874475368,-1176.2910662742427) " id="svg_65"/>
   <g stroke="null" transform="matrix(0.4284034058221944,0,0,0.4297344116611525,-1177.5190874475368,-1176.2910662742427) " id="svg_66"/>
   <g stroke="null" transform="matrix(0.4284034058221944,0,0,0.4297344116611525,-1177.5190874475368,-1176.2910662742427) " id="svg_67"/>
   <g stroke="null" transform="matrix(0.4284034058221944,0,0,0.4297344116611525,-1177.5190874475368,-1176.2910662742427) " id="svg_68"/>
   <g stroke="null" transform="matrix(0.4284034058221944,0,0,0.4297344116611525,-1177.5190874475368,-1176.2910662742427) " id="svg_69"/>
  </g>
 </g>
</svg>