<svg width="324.306" height="324.306" xmlns="http://www.w3.org/2000/svg">
 <defs>
  <radialGradient r="0.5" cy="0.5" cx="0.5" spreadMethod="pad" id="svg_24">
   <stop offset="0" stop-color="#ff0000"/>
   <stop offset="1" stop-opacity="0.988281" stop-color="#ce0202"/>
  </radialGradient>
 </defs>
 <g>
  <title>background</title>
  <rect fill="none" id="canvas_background" height="326.306" width="326.306" y="-1" x="-1"/>
 </g>
 <g>
  <title>Layer 1</title>
  <g id="svg_3"/>
  <g id="svg_4"/>
  <g id="svg_5"/>
  <g id="svg_6"/>
  <g id="svg_7"/>
  <g id="svg_8"/>
  <g id="svg_9"/>
  <g id="svg_10"/>
  <g id="svg_11"/>
  <g id="svg_12"/>
  <g id="svg_13"/>
  <g id="svg_14"/>
  <g id="svg_15"/>
  <g id="svg_16"/>
  <g id="svg_17"/>
  <ellipse stroke="#ff0000" ry="144.5" rx="144.5" id="svg_18" cy="160.653" cx="156.653015" stroke-width="1.5" fill="#ff8300"/>
  <ellipse stroke="null" ry="131.499994" rx="131.499994" id="svg_19" cy="160.652994" cx="156.65301" stroke-opacity="null" stroke-width="null" fill="url(#svg_24)"/>
  <g stroke="null" id="svg_1">
   <path stroke="null" id="svg_2" fill="#ffffff" d="m161.04041,197.07818l-91.49641,-108.41781l0.41996,-6.98301l78.69504,89.27813l-78.24417,-96.83814l1.54242,-25.89067l102.06231,133.45876l-12.97915,15.39274zm25.36057,-21.47108l-32.61147,38.64266l3.62331,4.2934l32.61146,-38.64265l-3.6233,-4.29341zm50.12597,95.17431l-2.4184,2.87177c-4.3404,5.13702 -11.3663,5.13702 -15.69641,0l-2.42355,-2.87177c-0.21041,-0.24932 -0.35898,-0.52204 -0.53847,-0.78358l-0.06613,0.07327l-47.10298,-55.81422l18.12512,-21.47108l47.09782,55.81422l-0.06183,0.07327c0.22071,0.2249 0.46118,0.39485 0.66643,0.64315l2.4184,2.86566c4.33011,5.13091 4.33011,13.46229 0,18.59931zm-47.99957,-61.89968c-1.83956,-2.17367 -4.81189,-2.17367 -6.6463,0c-1.83957,2.16756 -1.83957,5.70181 0,7.87548c1.82926,2.16756 4.80674,2.16756 6.6463,0c1.82411,-2.16756 1.82411,-5.70079 0,-7.87548zm14.49151,17.17259c-1.83956,-2.17367 -4.81189,-2.17367 -6.65146,0c-1.83441,2.16756 -1.83441,5.6957 0,7.87548c1.83441,2.16756 4.80674,2.16756 6.65146,0c1.82926,-2.16756 1.82926,-5.6957 0,-7.87548zm14.49151,17.18378c-1.83957,-2.17366 -4.8119,-2.17366 -6.64631,0c-1.82926,2.16757 -1.82926,5.69571 0,7.87548c1.35262,1.60278 3.33045,2.00373 5.01715,1.23236c0.04637,-0.04885 0.07214,-0.11499 0.1125,-0.16384l2.4184,-2.87177c0.05153,-0.04884 0.1022,-0.08548 0.14342,-0.13331c0.64583,-1.99253 0.30316,-4.33614 -1.04516,-5.93892z"/>
  </g>
 </g>
</svg>