<svg width="324.306" height="324.306" xmlns="http://www.w3.org/2000/svg">

 <g>
  <title>background</title>
  <rect x="-1" y="-1" width="326.306" height="326.306" id="canvas_background" fill="none"/>
 </g>
 <g>
  <title>Layer 1</title>
  <g id="svg_3"/>
  <g id="svg_4"/>
  <g id="svg_5"/>
  <g id="svg_6"/>
  <g id="svg_7"/>
  <g id="svg_8"/>
  <g id="svg_9"/>
  <g id="svg_10"/>
  <g id="svg_11"/>
  <g id="svg_12"/>
  <g id="svg_13"/>
  <g id="svg_14"/>
  <g id="svg_15"/>
  <g id="svg_16"/>
  <g id="svg_17"/>
  <ellipse fill="#000000" stroke-width="1.5" cx="156.653015" cy="160.653" id="svg_18" rx="144.5" ry="144.5" stroke="#000000"/>
  <ellipse fill="#ff0000" stroke-width="null" stroke-opacity="null" cx="156.65301" cy="160.652994" id="svg_19" rx="131.499994" ry="131.499994" stroke="null"/>
  <g stroke="null" id="svg_86">
   <g stroke="null" transform="matrix(4.209204782479362,0,0,4.209204782479362,11.18634241967834,8.280961737803409) " id="svg_69">
    <path stroke="null" id="svg_70" fill="#030104" d="m31.652177,35.069475l-16.505,-17.238l0.281,-5.346l18.311,20.273l-2.087,2.311zm-0.087,0.096l-16.499,-15.797l-0.068,1.289l15.59,15.59l0.977,-1.082zm4.938,6.997l3.01,-3.013l-1.027,-1.139l-3.065,3.065l1.082,1.087zm6.024,-4.3l-7.741,7.742l0.859,0.859l7.741,-7.742l-0.859,-0.859zm11.9,19.068l-0.574,0.574c-1.029,1.027 -2.698,1.027 -3.729,0l-0.145,-0.145c-0.201,-0.203 -0.354,-0.434 -0.475,-0.675l-0.101,0.099l-11.18,-11.181l4.301,-4.301l11.182,11.182l-0.1,0.1c0.242,0.123 0.473,0.273 0.674,0.476l0.145,0.146c1.028,1.026 1.028,2.695 0.002,3.725zm-11.258,-12.116c-0.434,-0.435 -1.141,-0.435 -1.576,0c-0.436,0.437 -0.436,1.142 0,1.578c0.436,0.435 1.143,0.435 1.576,-0.001c0.435,-0.436 0.435,-1.143 0,-1.577zm3.441,3.441c-0.436,-0.437 -1.143,-0.437 -1.577,-0.001c-0.435,0.435 -0.435,1.142 0,1.578c0.435,0.435 1.142,0.435 1.577,0c0.436,-0.436 0.436,-1.142 0,-1.577zm3.442,3.441c-0.435,-0.436 -1.142,-0.435 -1.578,0c-0.436,0.436 -0.436,1.143 0,1.577c0.438,0.435 1.144,0.435 1.578,-0.001c0.435,-0.434 0.435,-1.14 0,-1.576zm4.067,-31.039l-0.067,-1.289l-17.379,16.639l-1.262,1.208l1.211,-1.265l17.35,-18.119l-0.284,-5.346l-19.129,21.181l-2.063,2.284l-0.052,0.057l-0.994,1.101l-1.846,2.043l3.011,3.012l1.944,-1.944l3.109,-3.108l16.451,-16.454zm-25.375,19.354l-2.151,-2.151l-0.86,0.861l7.742,7.742l0.86,-0.86l-2.58,-2.581l-3.011,-3.011zm-2.151,1.291l4.301,4.301l-11.182,11.182l-0.099,-0.1c-0.123,0.241 -0.273,0.473 -0.474,0.674l-0.144,0.146c-1.029,1.028 -2.698,1.028 -3.727,0l-0.574,-0.574c-1.029,-1.03 -1.029,-2.699 0,-3.728l0.143,-0.146c0.202,-0.202 0.432,-0.353 0.673,-0.476l-0.099,-0.098l11.182,-11.181zm-5.949,10.394c-0.436,-0.436 -1.142,-0.436 -1.578,0c-0.435,0.436 -0.435,1.143 0,1.576c0.436,0.436 1.143,0.436 1.578,0.001c0.435,-0.436 0.435,-1.143 0,-1.577zm3.44,-3.442c-0.435,-0.434 -1.142,-0.434 -1.577,0.001c-0.435,0.434 -0.435,1.14 0,1.577c0.435,0.435 1.142,0.435 1.577,0c0.435,-0.436 0.435,-1.142 0,-1.578zm1.864,-3.44c-0.435,0.435 -0.435,1.142 0,1.577s1.142,0.436 1.577,0.001c0.435,-0.437 0.435,-1.144 0,-1.578c-0.435,-0.435 -1.142,-0.434 -1.577,0z"/>
   </g>
   <g stroke="null" transform="matrix(4.209204782479362,0,0,4.209204782479362,11.18634241967834,8.280961737803409) " id="svg_71"/>
   <g stroke="null" transform="matrix(4.209204782479362,0,0,4.209204782479362,11.18634241967834,8.280961737803409) " id="svg_72"/>
   <g stroke="null" transform="matrix(4.209204782479362,0,0,4.209204782479362,11.18634241967834,8.280961737803409) " id="svg_73"/>
   <g stroke="null" transform="matrix(4.209204782479362,0,0,4.209204782479362,11.18634241967834,8.280961737803409) " id="svg_74"/>
   <g stroke="null" transform="matrix(4.209204782479362,0,0,4.209204782479362,11.18634241967834,8.280961737803409) " id="svg_75"/>
   <g stroke="null" transform="matrix(4.209204782479362,0,0,4.209204782479362,11.18634241967834,8.280961737803409) " id="svg_76"/>
   <g stroke="null" transform="matrix(4.209204782479362,0,0,4.209204782479362,11.18634241967834,8.280961737803409) " id="svg_77"/>
   <g stroke="null" transform="matrix(4.209204782479362,0,0,4.209204782479362,11.18634241967834,8.280961737803409) " id="svg_78"/>
   <g stroke="null" transform="matrix(4.209204782479362,0,0,4.209204782479362,11.18634241967834,8.280961737803409) " id="svg_79"/>
   <g stroke="null" transform="matrix(4.209204782479362,0,0,4.209204782479362,11.18634241967834,8.280961737803409) " id="svg_80"/>
   <g stroke="null" transform="matrix(4.209204782479362,0,0,4.209204782479362,11.18634241967834,8.280961737803409) " id="svg_81"/>
   <g stroke="null" transform="matrix(4.209204782479362,0,0,4.209204782479362,11.18634241967834,8.280961737803409) " id="svg_82"/>
   <g stroke="null" transform="matrix(4.209204782479362,0,0,4.209204782479362,11.18634241967834,8.280961737803409) " id="svg_83"/>
   <g stroke="null" transform="matrix(4.209204782479362,0,0,4.209204782479362,11.18634241967834,8.280961737803409) " id="svg_84"/>
   <g stroke="null" transform="matrix(4.209204782479362,0,0,4.209204782479362,11.18634241967834,8.280961737803409) " id="svg_85"/>
  </g>
 </g>
</svg>