<svg width="324.306" height="324.306" xmlns="http://www.w3.org/2000/svg">

 <g>
  <title>background</title>
  <rect fill="none" id="canvas_background" height="326.306" width="326.306" y="-1" x="-1"/>
 </g>
 <g>
  <title>Layer 1</title>
  <g id="svg_3"/>
  <g id="svg_4"/>
  <g id="svg_5"/>
  <g id="svg_6"/>
  <g id="svg_7"/>
  <g id="svg_8"/>
  <g id="svg_9"/>
  <g id="svg_10"/>
  <g id="svg_11"/>
  <g id="svg_12"/>
  <g id="svg_13"/>
  <g id="svg_14"/>
  <g id="svg_15"/>
  <g id="svg_16"/>
  <g id="svg_17"/>
  <ellipse stroke="#000000" ry="144.5" rx="144.5" id="svg_18" cy="160.653" cx="156.653015" stroke-width="1.5" fill="#ff0000"/>
  <ellipse stroke="null" ry="131.499994" rx="131.499994" id="svg_19" cy="160.652994" cx="156.65301" stroke-opacity="null" stroke-width="null" fill="#ffffff"/>
  <g stroke="null" id="svg_105">
   <g stroke="null" transform="matrix(0.8831006803228458,0,0,0.8831006803228458,-894.9457916656168,-897.8721470778055) " id="svg_84">
    <g stroke="null" id="svg_85">
     <g stroke="null" id="svg_82">
      <g stroke="null" id="svg_86">
       <path stroke="null" id="svg_87" d="m1253.045057,1061.809254c-19.561,-8.861 -40.282,-13.354 -61.59,-13.354c-58.578,0 -112.045,34.466 -136.213,87.806c-34.006,75.061 -0.607,163.792 74.453,197.801c19.559,8.86 40.281,13.354 61.59,13.354c58.577,0 112.043,-34.467 136.211,-87.809c34.006,-75.058 0.607,-163.792 -74.451,-197.798zm-76.022,42.222c12.703,0 23.001,10.297 23.001,23c0,12.702 -10.298,23 -23.001,23c-12.701,0 -22.998,-10.298 -22.998,-23c0.001,-12.703 10.298,-23 22.998,-23zm71.496,189.117c-8.192,25.221 -38.349,47.979 -85.198,38.352l0,0.003c-9.65,-2.036 -19.096,-5.131 -28.26,-9.282c-68.531,-31.05 -99.025,-112.063 -67.977,-180.596c14.404,-31.789 40.211,-56.217 71.27,-69.356c1.777,-0.751 4.301,-0.423 1.301,1.952c-12.867,9.83 -17.449,18.747 -20.559,33.127c-6.186,28.607 8.848,68.982 69.59,96.502c57.16,25.898 67.954,64.291 59.833,89.298z"/>
       <g stroke="null" id="svg_88">
        <circle stroke="null" id="svg_89" r="23" cy="1276.873254" cx="1205.297057"/>
       </g>
      </g>
     </g>
    </g>
   </g>
   <g stroke="null" transform="matrix(0.8831006803228458,0,0,0.8831006803228458,-894.9457916656168,-897.8721470778055) " id="svg_90"/>
   <g stroke="null" transform="matrix(0.8831006803228458,0,0,0.8831006803228458,-894.9457916656168,-897.8721470778055) " id="svg_91"/>
   <g stroke="null" transform="matrix(0.8831006803228458,0,0,0.8831006803228458,-894.9457916656168,-897.8721470778055) " id="svg_92"/>
   <g stroke="null" transform="matrix(0.8831006803228458,0,0,0.8831006803228458,-894.9457916656168,-897.8721470778055) " id="svg_93"/>
   <g stroke="null" transform="matrix(0.8831006803228458,0,0,0.8831006803228458,-894.9457916656168,-897.8721470778055) " id="svg_94"/>
   <g stroke="null" transform="matrix(0.8831006803228458,0,0,0.8831006803228458,-894.9457916656168,-897.8721470778055) " id="svg_95"/>
   <g stroke="null" transform="matrix(0.8831006803228458,0,0,0.8831006803228458,-894.9457916656168,-897.8721470778055) " id="svg_96"/>
   <g stroke="null" transform="matrix(0.8831006803228458,0,0,0.8831006803228458,-894.9457916656168,-897.8721470778055) " id="svg_97"/>
   <g stroke="null" transform="matrix(0.8831006803228458,0,0,0.8831006803228458,-894.9457916656168,-897.8721470778055) " id="svg_98"/>
   <g stroke="null" transform="matrix(0.8831006803228458,0,0,0.8831006803228458,-894.9457916656168,-897.8721470778055) " id="svg_99"/>
   <g stroke="null" transform="matrix(0.8831006803228458,0,0,0.8831006803228458,-894.9457916656168,-897.8721470778055) " id="svg_100"/>
   <g stroke="null" transform="matrix(0.8831006803228458,0,0,0.8831006803228458,-894.9457916656168,-897.8721470778055) " id="svg_101"/>
   <g stroke="null" transform="matrix(0.8831006803228458,0,0,0.8831006803228458,-894.9457916656168,-897.8721470778055) " id="svg_102"/>
   <g stroke="null" transform="matrix(0.8831006803228458,0,0,0.8831006803228458,-894.9457916656168,-897.8721470778055) " id="svg_103"/>
   <g stroke="null" transform="matrix(0.8831006803228458,0,0,0.8831006803228458,-894.9457916656168,-897.8721470778055) " id="svg_104"/>
  </g>
 </g>
</svg>